<?xml version="1.0" encoding="UTF-8"?>
<!-- Created with Inkscape (http://www.inkscape.org/) -->
<svg width="264" height="36" version="1.1" viewBox="0 0 34.984266 4.7624956" xmlns="http://www.w3.org/2000/svg" xmlns:cc="http://creativecommons.org/ns#" xmlns:dc="http://purl.org/dc/elements/1.1/" xmlns:rdf="http://www.w3.org/1999/02/22-rdf-syntax-ns#">
 <metadata>
  <rdf:RDF>
   <cc:Work rdf:about="">
    <dc:format>image/svg+xml</dc:format>
    <dc:type rdf:resource="http://purl.org/dc/dcmitype/StillImage"/>
    <dc:title/>
   </cc:Work>
  </rdf:RDF>
 </metadata>
 <g transform="translate(-78.581 -157.56)">
  <rect x="78.581" y="157.56" width="8.9958" height="4.7625" ry=".26458" fill="#000080"/>
  <path transform="scale(.26458)" d="m309 608.52h9c1.6568 0 3-1.3432 3-3s-1.3432-3-3-3h-9v-2.9998" fill="none" stroke="#fff" stroke-linecap="square" stroke-width="1.6"/>
  <path d="m82.021 160.48v1.0583l-1.3229-0.52916z" fill="#fff"/>
  <g>
   <path d="m90.571 161.29q-0.14393 0-0.30057-0.0677-0.1524-0.072-0.28787-0.19473h-0.0127l-0.02963 0.21167h-0.2794v-3.0141h0.34713v0.82127l-0.0085 0.37253q0.1397-0.12276 0.3048-0.2032 0.1651-0.0847 0.33867-0.0847 0.19897 0 0.35137 0.0762 0.1524 0.072 0.254 0.21166 0.10583 0.13547 0.15663 0.3302 0.05503 0.1905 0.05503 0.42757 0 0.26247-0.07197 0.4699t-0.19473 0.35137q-0.12277 0.14393-0.28363 0.22013-0.16087 0.072-0.33867 0.072zm-0.05927-0.2921q0.127 0 0.23283-0.055 0.11007-0.0593 0.18627-0.16086 0.08043-0.10584 0.12277-0.25824 0.04657-0.1524 0.04657-0.3429 0-0.16933-0.02963-0.30903t-0.09737-0.23707q-0.0635-0.1016-0.16933-0.15663-0.1016-0.055-0.24553-0.055-0.24977 0-0.55033 0.2794v1.0795q0.13547 0.11853 0.2667 0.16933 0.13547 0.0466 0.23707 0.0466z" style="font-variant-caps:normal;font-variant-ligatures:normal;font-variant-numeric:normal"/>
   <path d="m92.417 161.29q-0.25823 0-0.4318-0.1524-0.16933-0.1524-0.16933-0.4318 0-0.33867 0.30057-0.51647 0.30057-0.18203 0.96097-0.254 0-0.0974-0.02117-0.1905-0.01693-0.0931-0.0635-0.1651t-0.13123-0.1143q-0.08043-0.0466-0.20743-0.0466-0.1778 0-0.33443 0.0677t-0.2794 0.1524l-0.13547-0.2413q0.14393-0.0931 0.35137-0.1778 0.20743-0.0889 0.4572-0.0889 0.37677 0 0.5461 0.23283 0.16933 0.2286 0.16933 0.61383v1.2615h-0.28787l-0.02963-0.24554h-0.0127q-0.14817 0.12277-0.3175 0.21167-0.16933 0.0847-0.36407 0.0847zm0.1016-0.2794q0.14817 0 0.2794-0.0677 0.13123-0.072 0.2794-0.20743v-0.5715q-0.25823 0.0339-0.43603 0.0804-0.17357 0.0466-0.28363 0.11007-0.10583 0.0635-0.15663 0.14817-0.04657 0.0804-0.04657 0.1778 0 0.1778 0.10583 0.254 0.10583 0.0762 0.25823 0.0762z" style="font-variant-caps:normal;font-variant-ligatures:normal;font-variant-numeric:normal"/>
   <path d="m94.889 161.29q-0.2032 0-0.381-0.072t-0.30903-0.20743q-0.127-0.1397-0.2032-0.33867-0.07197-0.2032-0.07197-0.4572 0-0.25823 0.08043-0.4572 0.08043-0.2032 0.2159-0.3429 0.13547-0.1397 0.31327-0.21167 0.18203-0.072 0.381-0.072 0.2032 0 0.34713 0.072 0.14393 0.072 0.254 0.16934l-0.1778 0.2286q-0.0889-0.0804-0.1905-0.13124-0.09737-0.0508-0.22013-0.0508-0.1397 0-0.25823 0.0593-0.11853 0.055-0.2032 0.16087-0.08467 0.10583-0.13547 0.254-0.04657 0.14393-0.04657 0.32173t0.04657 0.32173q0.04657 0.14394 0.127 0.24977 0.08467 0.1016 0.2032 0.16087 0.11853 0.055 0.25823 0.055 0.14393 0 0.26247-0.0593 0.12277-0.0635 0.22013-0.14816l0.1524 0.23283q-0.1397 0.12277-0.30903 0.19473-0.16933 0.0677-0.3556 0.0677z" style="font-variant-caps:normal;font-variant-ligatures:normal;font-variant-numeric:normal"/>
   <path d="m96.002 158.23h0.3429v2.0405h0.0127l0.8763-1.0837h0.38523l-0.69003 0.8255 0.78317 1.2319h-0.381l-0.60113-0.9906-0.38523 0.44873v0.54187h-0.3429z" style="font-variant-caps:normal;font-variant-ligatures:normal;font-variant-numeric:normal"/>
   <path d="m99.005 161.29q-0.14393 0-0.30057-0.0677-0.1524-0.072-0.28787-0.19473h-0.0127l-0.02963 0.21167h-0.2794v-3.0141h0.34713v0.82127l-0.0085 0.37253q0.1397-0.12276 0.3048-0.2032 0.1651-0.0847 0.33867-0.0847 0.19897 0 0.35137 0.0762 0.1524 0.072 0.254 0.21166 0.10583 0.13547 0.15663 0.3302 0.05503 0.1905 0.05503 0.42757 0 0.26247-0.07197 0.4699t-0.19473 0.35137q-0.12277 0.14393-0.28363 0.22013-0.16087 0.072-0.33867 0.072zm-0.05927-0.2921q0.127 0 0.23283-0.055 0.11007-0.0593 0.18627-0.16086 0.08043-0.10584 0.12277-0.25824 0.04657-0.1524 0.04657-0.3429 0-0.16933-0.02963-0.30903t-0.09737-0.23707q-0.0635-0.1016-0.16933-0.15663-0.1016-0.055-0.24553-0.055-0.24977 0-0.55033 0.2794v1.0795q0.13547 0.11853 0.2667 0.16933 0.13547 0.0466 0.23707 0.0466z" style="font-variant-caps:normal;font-variant-ligatures:normal;font-variant-numeric:normal"/>
   <path d="m101.04 161.29q-0.3302 0-0.4826-0.2032-0.14816-0.2032-0.14816-0.60114v-1.3039h0.35136v1.2573q0 0.2921 0.0889 0.42333 0.0931 0.127 0.29634 0.127 0.16086 0 0.28363-0.0804 0.12277-0.0847 0.27093-0.2667v-1.4605h0.34714v2.0574h-0.28787l-0.0296-0.32174h-0.0127q-0.14394 0.16934-0.3048 0.27094-0.15664 0.1016-0.37254 0.1016z" style="font-variant-caps:normal;font-variant-ligatures:normal;font-variant-numeric:normal"/>
   <path d="m103.39 161.29q-0.1651 0-0.2794-0.0508-0.11007-0.0508-0.18204-0.1397-0.0677-0.0889-0.0974-0.2159-0.0296-0.127-0.0296-0.2794v-1.1388h-0.3048v-0.26247l0.32174-0.0212 0.0423-0.57574h0.2921v0.57574h0.55457v0.28363h-0.55457v1.143q0 0.1905 0.0677 0.29633 0.072 0.1016 0.24977 0.1016 0.055 0 0.11853-0.0169 0.0635-0.0169 0.1143-0.0381l0.0677 0.26247q-0.0847 0.0296-0.18627 0.0508-0.0974 0.0254-0.19473 0.0254z" style="font-variant-caps:normal;font-variant-ligatures:normal;font-variant-numeric:normal"/>
   <path d="m104.74 161.29q-0.1651 0-0.2794-0.0508-0.11007-0.0508-0.18204-0.1397-0.0677-0.0889-0.0974-0.2159-0.0296-0.127-0.0296-0.2794v-1.1388h-0.3048v-0.26247l0.32174-0.0212 0.0423-0.57574h0.2921v0.57574h0.55457v0.28363h-0.55457v1.143q0 0.1905 0.0677 0.29633 0.072 0.1016 0.24977 0.1016 0.055 0 0.11853-0.0169 0.0635-0.0169 0.1143-0.0381l0.0677 0.26247q-0.0847 0.0296-0.18627 0.0508-0.0974 0.0254-0.19473 0.0254z" style="font-variant-caps:normal;font-variant-ligatures:normal;font-variant-numeric:normal"/>
   <path d="m106.26 161.29q-0.1905 0-0.36406-0.072-0.16934-0.072-0.30057-0.20743-0.13123-0.1397-0.21167-0.33867-0.0762-0.2032-0.0762-0.4572 0-0.25823 0.0762-0.4572 0.0804-0.2032 0.21167-0.3429 0.13123-0.1397 0.30057-0.21167 0.17356-0.072 0.36406-0.072t0.35984 0.072q0.17356 0.072 0.3048 0.21167 0.13123 0.1397 0.20743 0.3429 0.0804 0.19897 0.0804 0.4572 0 0.254-0.0804 0.4572-0.0762 0.19897-0.20743 0.33867-0.13124 0.13546-0.3048 0.20743-0.16934 0.072-0.35984 0.072zm0-0.28787q0.13124 0 0.2413-0.055 0.11007-0.0593 0.18627-0.16087 0.0804-0.10583 0.12277-0.24977 0.0423-0.14393 0.0423-0.32173t-0.0423-0.32173q-0.0423-0.14817-0.12277-0.254-0.0762-0.10584-0.18627-0.16087-0.11006-0.0593-0.2413-0.0593-0.13123 0-0.2413 0.0593-0.11006 0.055-0.1905 0.16087-0.0762 0.10583-0.11853 0.254-0.0423 0.14393-0.0423 0.32173t0.0423 0.32173q0.0423 0.14394 0.11853 0.24977 0.0804 0.1016 0.1905 0.16087 0.11007 0.055 0.2413 0.055z" style="font-variant-caps:normal;font-variant-ligatures:normal;font-variant-numeric:normal"/>
   <path d="m107.76 159.19h0.28787l0.0296 0.29633h0.0127q0.14817-0.14817 0.30903-0.24553 0.1651-0.1016 0.381-0.1016 0.32597 0 0.47414 0.2032 0.1524 0.2032 0.1524 0.60113v1.3039h-0.34714v-1.2573q0-0.2921-0.0931-0.4191-0.0931-0.13124-0.29633-0.13124-0.16087 0-0.28364 0.0804-0.12276 0.0804-0.2794 0.23706v1.4901h-0.34713z" style="font-variant-caps:normal;font-variant-ligatures:normal;font-variant-numeric:normal"/>
   <path d="m110.26 161.29q-0.10584 0-0.18204-0.072-0.072-0.0762-0.072-0.1905 0-0.12277 0.072-0.19473 0.0762-0.0762 0.18204-0.0762 0.1016 0 0.17356 0.0762 0.0762 0.072 0.0762 0.19473 0 0.1143-0.0762 0.1905-0.072 0.072-0.17356 0.072z" style="font-variant-caps:normal;font-variant-ligatures:normal;font-variant-numeric:normal"/>
   <path d="m111.02 162.16q-0.0974 0-0.17357-0.0169-0.0762-0.0169-0.13123-0.0381l0.072-0.26247q0.0381 0.0127 0.0889 0.0212 0.0508 0.0127 0.10583 0.0127 0.1524 0 0.2032-0.10584 0.0508-0.10583 0.0508-0.29633v-2.2902h0.34713v2.2902q0 0.31327-0.127 0.49953-0.127 0.18627-0.43603 0.18627zm0.3937-3.3994q-0.1016 0-0.17357-0.0635-0.0677-0.0635-0.0677-0.16086 0-0.1016 0.0677-0.16087 0.072-0.0635 0.17357-0.0635 0.0974 0 0.1651 0.0635 0.072 0.0593 0.072 0.16087 0 0.0974-0.072 0.16086-0.0677 0.0635-0.1651 0.0635z" style="font-variant-caps:normal;font-variant-ligatures:normal;font-variant-numeric:normal"/>
   <path d="m112.81 161.29q-0.22014 0-0.4191-0.0804-0.19897-0.0804-0.34714-0.2032l0.17357-0.23283q0.13547 0.11007 0.27517 0.1778 0.14393 0.0677 0.3302 0.0677 0.2032 0 0.3048-0.0931t0.1016-0.2286q0-0.0804-0.0423-0.1397t-0.11006-0.1016q-0.0635-0.0466-0.14817-0.0804-0.0847-0.0339-0.16933-0.0677-0.11007-0.0381-0.22014-0.0847-0.11006-0.0508-0.19896-0.11854-0.0847-0.072-0.1397-0.1651t-0.055-0.22436q0-0.12277 0.0466-0.2286 0.0508-0.11007 0.1397-0.18627 0.0931-0.0804 0.22437-0.12277 0.13123-0.0466 0.29633-0.0466 0.19473 0 0.3556 0.0677 0.1651 0.0677 0.28363 0.1651l-0.1651 0.22013q-0.10583-0.0804-0.22013-0.13123-0.1143-0.0508-0.24977-0.0508-0.19473 0-0.28786 0.0889-0.0889 0.0889-0.0889 0.20743 0 0.072 0.0381 0.127 0.0381 0.0508 0.1016 0.0931 0.0635 0.0381 0.14393 0.072 0.0847 0.0296 0.17357 0.0635 0.11006 0.0423 0.22013 0.0889 0.1143 0.0466 0.2032 0.11854 0.0889 0.0677 0.14393 0.16933 0.0593 0.1016 0.0593 0.24553 0 0.127-0.0508 0.23707-0.0466 0.11007-0.14393 0.19473-0.0931 0.0847-0.23707 0.13124-0.1397 0.0508-0.32173 0.0508z" style="font-variant-caps:normal;font-variant-ligatures:normal;font-variant-numeric:normal"/>
  </g>
 </g>
</svg>
